<?xml version="1.0" encoding="UTF-8"?><svg id="b" xmlns="http://www.w3.org/2000/svg" width="240" height="96.11" viewBox="0 0 240 96.11"><defs><style>.d{fill:#2d318d;}</style></defs><g id="c"><path class="d" d="M84.15,6.98c-.99.42-1.81.99-2.43,1.7-.61.71-1.05,1.57-1.27,2.49-.19.77-.29,1.59-.29,2.44v6.9h4.95v-1.79c0-2.19.52-3.69,1.58-4.59,1.13-.96,2.86-1.44,5.14-1.44h4.32v42.19h9.72V12.68h15.31v-6.31h-33.44c-1.42,0-2.59.2-3.59.61Z"/><path class="d" d="M72.44.05v31.32c0,3.76-.29,7.16-.86,10.1-.62,3.1-1.75,5.72-3.37,7.81-1.64,2.14-3.91,3.77-6.75,4.83-2.75,1.03-6.11,1.52-10.25,1.52s-7.2-.49-9.92-1.52c-2.79-1.06-5.08-2.67-6.77-4.81-1.67-2.09-2.86-4.71-3.55-7.79-.66-2.93-.99-6.34-.99-10.14V11.04c0-1.94-.26-3.55-.76-4.66-.13-.28-.42-.89-2.57-.92h-3.47V0h8.76c1.51,0,2.74.14,3.79.41,1.29.32,2.39,1.04,3.17,2.05.74.96,1.24,2.16,1.49,3.68.22,1.31.33,2.91.33,4.89v22.61c0,2.52.21,4.78.63,6.72.39,1.83,1.05,3.37,1.94,4.59.86,1.2,1.96,2.09,3.35,2.73,1.42.65,3.25.98,5.46.98.03.01.05,0,.07,0,2.59,0,4.78-.33,6.51-.99,1.63-.63,2.9-1.57,3.91-2.87,1.03-1.35,1.76-3.11,2.2-5.22.47-2.26.71-5.03.71-8.22V.05h6.95Z"/><path class="d" d="M160.07,41.01c-1.66,2.77-3.56,4.91-5.66,6.35-2.04,1.4-4.43,2.08-7.32,2.09-2.45,0-4.47-.49-6.17-1.49-1.74-1.03-3.12-2.33-4.22-3.98-1.13-1.68-1.96-3.62-2.48-5.79-.54-2.24-.82-4.55-.82-6.87,0-3.78.38-6.97,1.14-9.49.74-2.44,1.75-4.42,3-5.89,1.24-1.45,2.63-2.46,4.23-3.09,1.69-.66,3.43-.98,5.32-.98,3.14,0,5.59.85,7.49,2.59,1.9,1.75,3.25,4.64,3.99,8.58l.28,1.43h4.46v-1.77c0-1.99-.07-3.95-.2-5.83-.15-2.17-.76-3.93-1.8-5.23-1.36-1.71-3.42-3.11-6.3-4.28-2.77-1.12-6.08-1.69-9.84-1.69-3.01,0-5.88.69-8.53,2.05-2.62,1.34-4.93,3.2-6.88,5.54-1.91,2.3-3.46,5.03-4.59,8.13-1.11,3.08-1.68,6.42-1.68,9.93s.5,6.5,1.48,9.39c.99,2.96,2.45,5.57,4.32,7.75,1.88,2.21,4.2,3.97,6.88,5.25,2.69,1.28,5.72,1.92,9,1.92,2.02,0,3.97-.19,5.79-.57,1.88-.39,3.64-1.08,5.25-2.03,1.59-.94,3.1-2.19,4.49-3.71,1.37-1.51,2.62-3.4,3.71-5.61l.66-1.32-3.97-3.07-1.01,1.68Z"/><path class="d" d="M209.6,39.34l-1.01,1.68h0c-1.66,2.78-3.57,4.91-5.66,6.35-2.04,1.4-4.43,2.08-7.32,2.09-2.45,0-4.47-.49-6.17-1.49-1.74-1.03-3.12-2.33-4.22-3.98-1.13-1.69-1.97-3.64-2.48-5.79-.54-2.24-.82-4.55-.82-6.87,0-3.78.38-6.97,1.14-9.49.73-2.44,1.74-4.42,3-5.89,1.24-1.45,2.62-2.46,4.23-3.09,1.69-.66,3.43-.98,5.33-.98,3.14,0,5.58.85,7.48,2.59,1.9,1.75,3.25,4.64,3.99,8.57l.27,1.44h4.46v-1.77c0-2.05-.07-4.01-.2-5.83-.15-2.17-.76-3.93-1.8-5.23-1.37-1.72-3.43-3.12-6.3-4.27-2.76-1.12-6.08-1.69-9.84-1.69-3.01,0-5.88.69-8.52,2.05-2.63,1.34-4.94,3.21-6.88,5.54-1.92,2.3-3.46,5.03-4.59,8.13-1.12,3.08-1.68,6.42-1.68,9.93s.5,6.49,1.48,9.39c.99,2.94,2.44,5.55,4.31,7.75,1.88,2.21,4.2,3.98,6.88,5.25,2.69,1.28,5.72,1.92,9,1.92,2.02,0,3.97-.19,5.79-.57,1.88-.4,3.65-1.08,5.25-2.03,1.6-.94,3.11-2.19,4.49-3.71,1.37-1.51,2.62-3.4,3.72-5.62l.64-1.31-3.96-3.07Z"/><rect class="d" y="67.89" width="240" height="1.31"/><path class="d" d="M11.12,82.25v9.03c0,2.91-1.4,4.82-4.83,4.82-.82,0-2.43,0-3.22-1.61v1.44H0v-13.69h3.08v9.27c0,1.27,1.16,1.95,2.74,1.95,1.4,0,2.23-.65,2.23-1.95v-9.27h3.08Z"/><path class="d" d="M14.34,82.25h3.08v3.25h4.04c.51,0,.79,0,.79-1.06v-2.19h3.08v2.19c0,.79-.21,1.78-.75,2.46.62.89.75,2.22.75,3.15v5.89h-3.08v-6.06c0-1.75-.14-1.75-.75-1.75h-4.07v7.8h-3.08v-13.69Z"/><path class="d" d="M32.95,95.94v-9.34c0-1.4-1.13-1.64-1.81-1.64-.55,0-1.75,0-2.67.89l-1.54-1.98c1.06-1.16,2.46-1.61,4.21-1.61,2.84,0,4.89,1.34,4.89,4.48v9.2h-3.08Z"/><path class="d" d="M45.3,86.19c0-1.09-.85-1.23-2.09-1.23s-1.81.14-1.81,1.23v1.13h-3.08v-1.13c0-2.94,1.47-4.11,4.89-4.11s5.17,1.16,5.17,4.11v5.27c0,3.32-1.51,4.65-4.89,4.65-.55,0-2.39,0-3.83-.68l.99-2.43c1.27.48,2.5.48,2.84.48,1.2,0,1.81-.38,1.81-1.71v-5.58Z"/><path class="d" d="M38.36,76.71h10.03v2.63h-10.03v-2.63Z"/><path class="d" d="M59.64,95.94v-9.03c0-1.3-.82-1.95-2.22-1.95-1.57,0-2.74.68-2.74,1.95v9.03h-3.08v-13.69h3.08v1.64c.79-1.64,2.4-1.81,3.22-1.81,3.42,0,4.82,1.92,4.82,4.83v9.03h-3.08Z"/><path class="d" d="M76.99,82.25v10.64c0,2.36-1.81,3.22-4.07,3.22h-3.15c-3.18,0-4.21-1.95-4.21-4.45,0-.96.41-1.98,1.26-2.74-.89-.65-1.4-1.71-1.4-2.81,0-2.33,1.3-3.87,3.59-3.87h3.01v2.64h-1.81c-1.27,0-1.71.24-1.71,1.23,0,.92.72,1.37,1.54,1.37h1.98v2.63h-1.88c-.96,0-1.51.68-1.51,1.54s.1,1.81,1.27,1.81h2.94c.68-.07,1.06-.28,1.06-.89v-10.33h3.08Z"/><path class="d" d="M84.62,95.94v-9.34c0-1.4-1.13-1.64-1.81-1.64-.55,0-1.75,0-2.67.89l-1.54-1.98c1.06-1.16,2.46-1.61,4.21-1.61,2.84,0,4.89,1.34,4.89,4.48v9.2h-3.08Z"/><path class="d" d="M98.61,86.19c0-1.09-1.16-1.23-2.43-1.23s-2.39.14-2.39,1.23v.92h-3.08v-.92c0-2.94,2.09-4.11,5.48-4.11s5.51,1.16,5.51,4.11v9.75h-3.08v-4.41c0-.65-1.81-.65-2.94-.65s-2.26.21-2.26,1.16c0,.62,0,1.27,1.78,1.27h.96v2.63h-1.57c-4,0-4.24-2.4-4.24-3.83,0-3.01,2.16-3.87,5.3-3.87.82,0,2.05.1,2.98.48v-2.53Z"/><path class="d" d="M94.64,79.34v-4.07h3.08v1.44h5.58v2.63h-8.66Z"/><path class="d" d="M115.96,82.25v10.64c0,2.36-1.81,3.22-4.07,3.22h-3.15c-3.18,0-4.21-1.95-4.21-4.45,0-.96.41-1.98,1.27-2.74-.89-.65-1.4-1.71-1.4-2.81,0-2.33,1.3-3.87,3.59-3.87h3.01v2.64h-1.81c-1.27,0-1.71.24-1.71,1.23,0,.92.72,1.37,1.54,1.37h1.98v2.63h-1.88c-.96,0-1.51.68-1.51,1.54s.1,1.81,1.27,1.81h2.94c.68-.07,1.06-.28,1.06-.89v-10.33h3.08Z"/><path class="d" d="M119.18,82.25h3.08v3.25h4.04c.51,0,.79,0,.79-1.06v-2.19h3.08v2.19c0,.79-.21,1.78-.75,2.46.62.89.75,2.22.75,3.15v5.89h-3.08v-6.06c0-1.75-.14-1.75-.75-1.75h-4.07v7.8h-3.08v-13.69Z"/><path class="d" d="M144.02,91.42c0,3.22-2.09,4.69-5.51,4.69-3.83,0-5.47-1.78-5.47-4.69v-3.11h4.55v2.63h-1.47v.72c0,1.3,1.09,1.81,2.39,1.81s2.43-.51,2.43-1.81v-5.48c0-1.09-1.16-1.23-2.43-1.23s-2.39.14-2.39,1.23v.69h-3.08v-.69c0-2.94,2.09-4.11,5.47-4.11s5.51,1.16,5.51,4.11v5.24Z"/><path class="d" d="M149.97,95.94h-3.08v-11.12c1.85-2.74,4.41-2.74,5.34-2.74,5.44,0,5.54,4.24,5.54,4.62v9.24h-3.08v-9.24c0-1.75-2.22-1.75-2.46-1.75-1.81,0-2.26.99-2.26.99v9.99Z"/><path class="d" d="M165.41,95.94v-9.34c0-1.4-1.13-1.64-1.81-1.64-.55,0-1.74,0-2.67.89l-1.54-1.98c1.06-1.16,2.47-1.61,4.21-1.61,2.84,0,4.89,1.34,4.89,4.48v9.2h-3.08Z"/><path class="d" d="M180.94,91.8c0,2.91-2.46,4.31-4.96,4.31-1.4,0-3.8-.34-5.2-2.12l1.71-1.81c1.27.99,2.29,1.3,3.46,1.3.99,0,1.91-.75,1.91-1.68,0-1.81-6.57-1.33-6.57-5.54,0-2.77,1.68-4.17,4.69-4.17,1.47,0,3.18.34,4.55,1.1l-1.06,2.46c-1.13-.51-2.53-.68-3.49-.68s-1.61.38-1.61,1.3c0,1.57,6.57,1.47,6.57,5.54Z"/><path class="d" d="M194.59,86.63v9.31h-3.08v-9.75c0-1.09-1.27-1.23-2.53-1.23-1.33,0-2.57.14-2.57,1.23v2.26c.55-.34,1.61-.34,2.19-.34h1.37v2.63h-1.37c-.75,0-1.95.03-2.19.34v4.86h-3.08v-9.31c0-3.35,1.88-4.55,5.65-4.55s5.61,1.2,5.61,4.55Z"/><path class="d" d="M188.85,77.5h-1.37v-2.63h4.04v1.85h3.08v2.63h-5.75v-1.85Z"/><path class="d" d="M202.22,95.94v-9.34c0-1.4-1.13-1.64-1.81-1.64-.55,0-1.75,0-2.67.89l-1.54-1.98c1.06-1.16,2.46-1.61,4.21-1.61,2.84,0,4.89,1.34,4.89,4.48v9.2h-3.08Z"/><path class="d" d="M211.46,95.94h-3.08v-13.82c0-2.02,2.02-2.57,2.02-4.1,0-.14,0-.69-.65-.69h-3.94v-2.63h4.35c3.32,0,3.32,1.81,3.32,3.15,0,2.33-2.02,2.88-2.02,4.28v13.82Z"/><path class="d" d="M222.65,95.94v-9.03c0-1.3-.82-1.95-2.22-1.95-1.57,0-2.74.68-2.74,1.95v9.03h-3.08v-13.69h3.08v1.64c.79-1.64,2.39-1.81,3.22-1.81,3.42,0,4.82,1.92,4.82,4.83v9.03h-3.08Z"/><path class="d" d="M240,82.25v10.64c0,2.36-1.81,3.22-4.07,3.22h-3.15c-3.18,0-4.21-1.95-4.21-4.45,0-.96.41-1.98,1.27-2.74-.89-.65-1.4-1.71-1.4-2.81,0-2.33,1.3-3.87,3.59-3.87h3.01v2.64h-1.81c-1.27,0-1.71.24-1.71,1.23,0,.92.72,1.37,1.54,1.37h1.98v2.63h-1.88c-.96,0-1.51.68-1.51,1.54s.1,1.81,1.27,1.81h2.94c.68-.07,1.06-.28,1.06-.89v-10.33h3.08Z"/></g></svg>